HIERARCHY
ROOT Hips
{
	OFFSET 0.000000 101.407303 0.000000
	CHANNELS 6 Xposition Yposition Zposition Xrotation Yrotation Zrotation 
	JOINT Spine
	{
		OFFSET 0.000000 12.947403 1.306900
		CHANNELS 3 Xrotation Yrotation Zrotation
		JOINT Spine1
		{
			OFFSET 0.000000 7.849935 0.023233
			CHANNELS 3 Xrotation Yrotation Zrotation
			JOINT Spine1_split
			{
				OFFSET 0.000000 7.849935 0.023233
				CHANNELS 3 Xrotation Yrotation Zrotation
				JOINT Spine2
				{
					OFFSET 0.000000 7.849935 0.023233
					CHANNELS 3 Xrotation Yrotation Zrotation
					JOINT Neck
					{
						OFFSET 0.000000 29.862503 -6.856800
						CHANNELS 3 Xrotation Yrotation Zrotation
						JOINT Head
						{
							OFFSET 0.000000 15.812698 4.504600
							CHANNELS 3 Xrotation Yrotation Zrotation
							JOINT HeadTop_End
							{
								OFFSET 0.000000 16.914200 8.548800
								CHANNELS 3 Xrotation Yrotation Zrotation
								End Site
								{
									OFFSET 0.000000 0.000000 0.000000
								}
							}
						}
					}
					JOINT LeftShoulder
					{
						OFFSET 7.846600 15.263801 -7.442750
						CHANNELS 3 Xrotation Yrotation Zrotation
						JOINT LeftShoulder_split
						{
							OFFSET 7.846600 15.263801 -7.442750
							CHANNELS 3 Xrotation Yrotation Zrotation
							JOINT LeftArm
							{
								OFFSET 16.158352 -8.507996 -0.001700
								CHANNELS 3 Xrotation Yrotation Zrotation
								JOINT LeftForeArm
								{
									OFFSET 37.385117 0.000000 0.000000
									CHANNELS 3 Xrotation Yrotation Zrotation
									JOINT LeftHand
									{
										OFFSET 41.865608 0.000000 0.000000
										CHANNELS 3 Xrotation Yrotation Zrotation
										JOINT LeftHandMiddle1
										{
											OFFSET 17.930908 0.000000 0.000000
											CHANNELS 3 Xrotation Yrotation Zrotation
											JOINT LeftHandMiddle2
											{
												OFFSET 6.842804 0.000000 0.000000
												CHANNELS 3 Xrotation Yrotation Zrotation
												JOINT LeftHandMiddle3
												{
													OFFSET 5.656097 0.000000 0.000000
													CHANNELS 3 Xrotation Yrotation Zrotation
													JOINT LeftHandMiddle4
													{
														OFFSET 4.457901 0.000000 0.000000
														CHANNELS 3 Xrotation Yrotation Zrotation
														End Site
														{
															OFFSET 0.000000 0.000000 0.000000
														}
													}
												}
											}
										}
										JOINT LeftHandThumb1
										{
											OFFSET 5.702896 -5.507935 7.195556
											CHANNELS 3 Xrotation Yrotation Zrotation
											JOINT LeftHandThumb2
											{
												OFFSET 5.408127 -3.122391 3.122385
												CHANNELS 3 Xrotation Yrotation Zrotation
												JOINT LeftHandThumb3
												{
													OFFSET 3.444435 -1.988647 1.988645
													CHANNELS 3 Xrotation Yrotation Zrotation
													JOINT LeftHandThumb4
													{
														OFFSET 4.134804 -2.387222 2.387226
														CHANNELS 3 Xrotation Yrotation Zrotation
														End Site
														{
															OFFSET 0.000000 0.000000 0.000000
														}
													}
												}
											}
										}
										JOINT LeftHandIndex1
										{
											OFFSET 17.395584 -0.582092 6.233670
											CHANNELS 3 Xrotation Yrotation Zrotation
											JOINT LeftHandIndex2
											{
												OFFSET 6.306503 0.000000 0.000000
												CHANNELS 3 Xrotation Yrotation Zrotation
												JOINT LeftHandIndex3
												{
													OFFSET 5.287003 0.000000 0.000000
													CHANNELS 3 Xrotation Yrotation Zrotation
													JOINT LeftHandIndex4
													{
														OFFSET 4.643600 0.000000 0.000000
														CHANNELS 3 Xrotation Yrotation Zrotation
														End Site
														{
															OFFSET 0.000000 0.000000 0.000000
														}
													}
												}
											}
										}
										JOINT LeftHandRing1
										{
											OFFSET 16.506798 -0.315063 -5.943797
											CHANNELS 3 Xrotation Yrotation Zrotation
											JOINT LeftHandRing2
											{
												OFFSET 6.332909 0.000000 0.000000
												CHANNELS 3 Xrotation Yrotation Zrotation
												JOINT LeftHandRing3
												{
													OFFSET 5.608902 0.000000 0.000000
													CHANNELS 3 Xrotation Yrotation Zrotation
													JOINT LeftHandRing4
													{
														OFFSET 4.489700 0.000000 0.000000
														CHANNELS 3 Xrotation Yrotation Zrotation
														End Site
														{
															OFFSET 0.000000 0.000000 0.000000
														}
													}
												}
											}
										}
										JOINT LeftHandPinky1
										{
											OFFSET 14.729645 -0.423569 -11.253377
											CHANNELS 3 Xrotation Yrotation Zrotation
											JOINT LeftHandPinky2
											{
												OFFSET 5.576202 0.000000 0.000000
												CHANNELS 3 Xrotation Yrotation Zrotation
												JOINT LeftHandPinky3
												{
													OFFSET 4.090195 0.000000 0.000000
													CHANNELS 3 Xrotation Yrotation Zrotation
													JOINT LeftHandPinky4
													{
														OFFSET 4.222305 0.000000 0.000000
														CHANNELS 3 Xrotation Yrotation Zrotation
														End Site
														{
															OFFSET 0.000000 0.000000 0.000000
														}
													}
												}
											}
										}
									}
								}
							}
						}
					}
					JOINT RightShoulder
					{
						OFFSET -7.846600 15.263801 -7.442750
						CHANNELS 3 Xrotation Yrotation Zrotation
						JOINT RightShoulder_split
						{
							OFFSET -7.846600 15.263801 -7.442750
							CHANNELS 3 Xrotation Yrotation Zrotation
							JOINT RightArm
							{
								OFFSET -16.158352 -8.507996 -0.001700
								CHANNELS 3 Xrotation Yrotation Zrotation
								JOINT RightForeArm
								{
									OFFSET -37.385117 0.000000 0.000000
									CHANNELS 3 Xrotation Yrotation Zrotation
									JOINT RightHand
									{
										OFFSET -41.865608 0.000000 0.000000
										CHANNELS 3 Xrotation Yrotation Zrotation
										JOINT RightHandThumb1
										{
											OFFSET -5.702896 -5.507935 7.195556
											CHANNELS 3 Xrotation Yrotation Zrotation
											JOINT RightHandThumb2
											{
												OFFSET -5.408127 -3.122391 3.122385
												CHANNELS 3 Xrotation Yrotation Zrotation
												JOINT RightHandThumb3
												{
													OFFSET -3.444435 -1.988647 1.988645
													CHANNELS 3 Xrotation Yrotation Zrotation
													JOINT RightHandThumb4
													{
														OFFSET -4.134804 -2.387222 2.387226
														CHANNELS 3 Xrotation Yrotation Zrotation
														End Site
														{
															OFFSET 0.000000 0.000000 0.000000
														}
													}
												}
											}
										}
										JOINT RightHandIndex1
										{
											OFFSET -17.395584 -0.582092 6.233670
											CHANNELS 3 Xrotation Yrotation Zrotation
											JOINT RightHandIndex2
											{
												OFFSET -6.306503 0.000000 0.000000
												CHANNELS 3 Xrotation Yrotation Zrotation
												JOINT RightHandIndex3
												{
													OFFSET -5.287003 0.000000 0.000000
													CHANNELS 3 Xrotation Yrotation Zrotation
													JOINT RightHandIndex4
													{
														OFFSET -4.643600 0.000000 0.000000
														CHANNELS 3 Xrotation Yrotation Zrotation
														End Site
														{
															OFFSET 0.000000 0.000000 0.000000
														}
													}
												}
											}
										}
										JOINT RightHandMiddle1
										{
											OFFSET -17.930908 0.000000 0.000000
											CHANNELS 3 Xrotation Yrotation Zrotation
											JOINT RightHandMiddle2
											{
												OFFSET -6.842804 0.000000 0.000000
												CHANNELS 3 Xrotation Yrotation Zrotation
												JOINT RightHandMiddle3
												{
													OFFSET -5.656097 0.000000 0.000000
													CHANNELS 3 Xrotation Yrotation Zrotation
													JOINT RightHandMiddle4
													{
														OFFSET -4.457901 0.000000 0.000000
														CHANNELS 3 Xrotation Yrotation Zrotation
														End Site
														{
															OFFSET 0.000000 0.000000 0.000000
														}
													}
												}
											}
										}
										JOINT RightHandRing1
										{
											OFFSET -16.506798 -0.315063 -5.943797
											CHANNELS 3 Xrotation Yrotation Zrotation
											JOINT RightHandRing2
											{
												OFFSET -6.332909 0.000000 0.000000
												CHANNELS 3 Xrotation Yrotation Zrotation
												JOINT RightHandRing3
												{
													OFFSET -5.608902 0.000000 0.000000
													CHANNELS 3 Xrotation Yrotation Zrotation
													JOINT RightHandRing4
													{
														OFFSET -4.489700 0.000000 0.000000
														CHANNELS 3 Xrotation Yrotation Zrotation
														End Site
														{
															OFFSET 0.000000 0.000000 0.000000
														}
													}
												}
											}
										}
										JOINT RightHandPinky1
										{
											OFFSET -14.729645 -0.423569 -11.253377
											CHANNELS 3 Xrotation Yrotation Zrotation
											JOINT RightHandPinky2
											{
												OFFSET -5.576202 0.000000 0.000000
												CHANNELS 3 Xrotation Yrotation Zrotation
												JOINT RightHandPinky3
												{
													OFFSET -4.090195 0.000000 0.000000
													CHANNELS 3 Xrotation Yrotation Zrotation
													JOINT RightHandPinky4
													{
														OFFSET -4.222305 0.000000 0.000000
														CHANNELS 3 Xrotation Yrotation Zrotation
														End Site
														{
															OFFSET 0.000000 0.000000 0.000000
														}
													}
												}
											}
										}
									}
								}
							}
						}
					}
				}
			}
		}
	}
	JOINT LeftUpLeg
	{
		OFFSET 15.658500 -8.406799 1.467000
		CHANNELS 3 Xrotation Yrotation Zrotation
		JOINT LeftLeg
		{
			OFFSET 0.792579 -36.604332 4.766200
			CHANNELS 3 Xrotation Yrotation Zrotation
			JOINT LeftFoot
			{
				OFFSET -0.792578 -37.534470 -7.318300
				CHANNELS 3 Xrotation Yrotation Zrotation
				JOINT LeftToeBase
				{
					OFFSET 5.840500 -16.053600 19.756901
					CHANNELS 3 Xrotation Yrotation Zrotation
					JOINT LeftToe_End
					{
						OFFSET 2.682899 1.876800 15.492800
						CHANNELS 3 Xrotation Yrotation Zrotation
						End Site
						{
							OFFSET 0.000000 0.000000 0.000000
						}
					}
				}
			}
		}
	}
	JOINT RightUpLeg
	{
		OFFSET -15.658500 -8.406799 1.467000
		CHANNELS 3 Xrotation Yrotation Zrotation
		JOINT RightLeg
		{
			OFFSET -0.792722 -36.604370 4.766100
			CHANNELS 3 Xrotation Yrotation Zrotation
			JOINT RightFoot
			{
				OFFSET 0.792723 -37.534534 -7.318300
				CHANNELS 3 Xrotation Yrotation Zrotation
				JOINT RightToeBase
				{
					OFFSET -5.840500 -16.053600 19.756901
					CHANNELS 3 Xrotation Yrotation Zrotation
					JOINT RightToe_End
					{
						OFFSET -2.682899 1.876800 15.492800
						CHANNELS 3 Xrotation Yrotation Zrotation
						End Site
						{
							OFFSET 0.000000 0.000000 0.000000
						}
					}
				}
			}
		}
	}
}
MOTION
Frames: 4
Frame Time: 0.016667
3.264091 81.653763 4.913133 -16.196083 -36.562289 -13.872223 13.882709 0.993809 1.352849 11.018509 1.099523 -0.057090 0.000000 0.000000 0.000000 11.026307 1.023862 -0.048151 14.311201 3.057947 -3.079138 -7.635605 18.846941 -4.854264 -0.000001 0.000000 -0.000000 0.317172 1.129754 -0.837596 0.000000 0.000000 0.000000 -39.956965 -10.135350 -52.443388 -0.002824 -87.427152 -0.002755 32.699005 10.284143 25.544462 0.919215 4.340607 -14.823025 0.590553 2.794672 -23.859674 -0.000001 0.000006 -0.000021 -0.000001 -0.000001 -0.000000 -1.055715 4.510694 4.988867 7.290742 21.012046 -1.885804 10.082290 26.101226 -3.453750 0.000000 0.000003 0.000001 1.096216 8.291930 -7.566175 0.130779 1.338326 -11.162453 0.000003 0.000008 0.000006 -0.000000 0.000000 0.000001 -0.183150 1.191951 -25.753208 0.478871 2.527386 -21.454329 0.013796 0.436703 -3.621111 0.000001 0.000002 0.000002 0.583073 2.929730 -32.513319 0.250203 -2.208158 -16.002604 0.000002 0.000001 -0.000004 -0.000001 0.000001 0.000001 3.402035 13.283996 1.828359 0.000000 0.000000 0.000000 -49.417921 27.691101 66.702699 0.000273 102.350023 -0.000259 39.986868 -2.346384 -8.635096 -10.007052 -5.378960 -4.329505 4.638892 -8.638809 -0.225094 -5.426745 11.927072 -1.805794 -0.000001 0.000000 0.000000 -1.075507 2.291240 17.957834 0.106550 -1.215067 10.022895 -0.000001 0.000007 0.000003 -0.000002 0.000001 0.000000 -0.408266 0.217612 17.663093 0.407793 -2.350416 19.682269 0.020234 -0.487433 4.004852 -0.000002 0.000000 -0.000000 1.887358 -6.139674 21.137255 0.034270 -0.690943 5.679225 0.006348 -0.224511 1.843117 0.000001 -0.000000 -0.000000 0.030136 -1.420305 21.881648 0.129602 -1.338877 11.056801 0.006127 -0.292433 2.400178 0.000000 -0.000000 -0.000000 -35.890308 1.259571 28.050783 54.465551 -5.285571 5.852956 -4.773961 1.902020 -18.895218 -0.000038 0.000005 -0.000006 0.000000 -0.000000 -0.000000 -9.754241 -8.069717 -11.853652 60.874607 -5.542149 -0.360999 -34.648614 -6.079384 15.403692 -0.000003 -0.000009 -0.000002 -0.000000 -0.000000 0.000000 
3.260849 81.413376 4.915854 -16.388028 -36.458293 -14.033003 13.967827 1.009421 1.363185 11.069680 1.116917 -0.067361 0.000000 0.000000 0.000000 11.077530 1.040803 -0.058384 14.341184 3.087615 -3.019700 -7.461094 18.917394 -4.661011 0.000000 0.000000 -0.000000 0.322579 1.103859 -0.852108 0.000000 0.000000 0.000000 -39.835265 -10.369415 -52.771008 -0.001381 -87.609067 -0.001420 33.055571 10.021686 25.880565 0.905422 4.306458 -14.726453 0.589256 2.791723 -23.832833 0.000006 0.000006 -0.000002 -0.000001 0.000003 0.000001 -1.153490 4.360926 4.962120 7.289729 21.008945 -1.885074 10.059746 26.063939 -3.441095 0.000002 -0.000001 -0.000000 1.081867 8.271990 -7.477963 0.131119 1.340020 -11.176464 0.000001 0.000014 0.000008 -0.000001 0.000003 0.000002 -0.178948 1.194792 -25.678607 0.478102 2.525432 -21.436801 0.013847 0.437437 -3.627112 0.000000 -0.000003 -0.000003 0.579826 2.925627 -32.545766 0.249818 -2.209479 -15.991416 0.000002 0.000005 -0.000002 -0.000001 0.000000 0.000001 3.446813 13.527880 1.821911 0.000000 0.000000 0.000000 -49.409763 27.544717 66.381174 0.000200 102.050526 -0.000211 40.061047 -2.346164 -8.244329 -9.941305 -5.478068 -4.357387 4.638891 -8.638808 -0.225103 -5.401319 11.853255 -1.808311 -0.000001 0.000004 -0.000004 -1.087844 2.292172 18.100777 0.107827 -1.222236 10.082623 -0.000001 0.000008 0.000004 0.000001 -0.000000 0.000001 -0.407584 0.193615 17.818582 0.411080 -2.359596 19.762394 0.019023 -0.487169 4.002049 -0.000001 0.000001 0.000000 1.904306 -6.154061 21.292912 0.035044 -0.698624 5.742371 0.005180 -0.223896 1.838019 -0.000001 -0.000002 0.000002 0.000332 -1.356588 22.057083 0.129804 -1.339930 11.065543 0.006143 -0.292812 2.403449 -0.000001 0.000002 0.000000 -36.064434 1.054772 28.127848 55.050847 -5.337546 5.879780 -4.976738 1.937604 -18.900336 -0.000038 0.000005 -0.000006 0.000000 0.000002 0.000000 -9.726143 -8.033037 -11.891644 61.349763 -5.475176 -0.298746 -34.949579 -6.135956 15.416230 -0.000009 -0.000012 -0.000002 0.000000 0.000000 0.000000 
3.292189 81.299744 4.975170 -16.434876 -36.437352 -14.105140 14.021472 1.033054 1.339489 11.087730 1.141782 -0.088858 0.000000 0.000000 0.000000 11.095586 1.066623 -0.080074 14.360854 3.121543 -2.975208 -7.356848 19.003376 -4.456867 0.000000 -0.000000 0.000000 0.332398 1.049326 -0.882311 0.000000 0.000000 0.000000 -39.762677 -10.556737 -53.059017 -0.001085 -87.769454 -0.000994 33.378206 9.756694 26.169248 0.892897 4.275194 -14.637748 0.588003 2.788892 -23.807137 0.000005 0.000014 0.000003 -0.000002 -0.000001 -0.000000 -1.244969 4.218388 4.941581 7.291174 21.013386 -1.886094 10.028461 26.012132 -3.423604 -0.000002 0.000001 -0.000002 1.067502 8.256859 -7.383736 0.131685 1.342879 -11.200627 0.000008 0.000010 0.000009 0.000001 -0.000000 0.000001 -0.175288 1.196978 -25.609714 0.477261 2.523311 -21.417837 0.013945 0.438920 -3.639587 -0.000000 -0.000001 0.000001 0.572700 2.916181 -32.602248 0.249528 -2.210508 -15.982369 0.000000 -0.000003 -0.000002 -0.000002 0.000001 -0.000000 3.487199 13.772833 1.797588 0.000000 0.000000 0.000000 -49.486619 27.481411 65.985809 0.000062 101.869000 -0.000064 40.096270 -2.349847 -7.996167 -9.862924 -5.593333 -4.408295 4.638894 -8.638808 -0.225105 -5.375650 11.778700 -1.810861 0.000000 0.000000 0.000002 -1.101796 2.304138 18.220672 0.108840 -1.227931 10.130194 -0.000001 0.000008 0.000002 -0.000001 0.000001 -0.000000 -0.407775 0.174459 17.960274 0.413868 -2.367348 19.830346 0.018015 -0.487375 4.003085 -0.000001 -0.000001 -0.000000 1.917216 -6.163260 21.420757 0.035691 -0.705103 5.795964 0.004393 -0.223541 1.834833 0.000002 -0.000001 -0.000000 -0.019360 -1.317493 22.207711 0.129904 -1.340493 11.070126 0.006173 -0.293545 2.409402 -0.000000 -0.000001 0.000000 -36.201775 0.957765 28.179144 55.417355 -5.329552 5.851835 -5.142306 1.961588 -18.844885 -0.000038 0.000005 -0.000006 -0.000000 0.000000 -0.000000 -9.735378 -8.003996 -11.933933 61.537170 -5.404556 -0.285776 -35.065337 -6.173433 15.457862 -0.000029 -0.000000 -0.000004 -0.000000 -0.000000 -0.000000 
3.354406 81.320801 5.097745 -16.347921 -36.510773 -14.092200 14.039403 1.068215 1.276904 11.069208 1.176918 -0.122583 0.000000 0.000000 0.000000 11.077048 1.104176 -0.114281 14.369176 3.156124 -2.953594 -7.326451 19.090193 -4.260018 -0.000001 0.000001 -0.000000 0.345735 0.971540 -0.925300 0.000000 0.000000 0.000000 -39.753829 -10.668768 -53.278194 0.001872 -87.921993 0.002108 33.632685 9.520763 26.370175 0.880143 4.242362 -14.551569 0.586894 2.786371 -23.784136 -0.000003 -0.000006 -0.000006 -0.000003 0.000000 -0.000000 -1.328851 4.085220 4.920910 7.293197 21.019663 -1.887589 9.987872 25.944868 -3.400933 -0.000001 -0.000000 0.000001 1.052570 8.246205 -7.279853 0.132450 1.346741 -11.233456 0.000001 0.000012 0.000010 -0.000002 -0.000001 0.000000 -0.173318 1.195849 -25.543215 0.476450 2.521230 -21.399449 0.014072 0.441044 -3.657089 -0.000003 -0.000000 -0.000001 0.559433 2.897748 -32.675420 0.249408 -2.210895 -15.978951 0.000000 0.000002 -0.000002 -0.000002 0.000003 0.000001 3.521670 14.009952 1.757463 0.000000 0.000000 0.000000 -49.644745 27.512446 65.535433 -0.000033 101.824802 0.000063 40.070886 -2.344742 -7.925457 -9.783689 -5.708880 -4.468218 4.638891 -8.638808 -0.225104 -5.355138 11.719238 -1.812870 0.000003 -0.000000 0.000000 -1.117062 2.332990 18.291906 0.109367 -1.230874 10.154518 -0.000000 0.000010 0.000003 -0.000001 -0.000003 0.000001 -0.408111 0.159717 18.074434 0.415623 -2.372203 19.872379 0.017351 -0.488050 4.008238 -0.000002 0.000001 -0.000000 1.927745 -6.173481 21.509598 0.036190 -0.709976 5.836148 0.003936 -0.223503 1.834501 -0.000001 -0.000000 0.000000 -0.025150 -1.310715 22.321082 0.130028 -1.341072 11.075198 0.006212 -0.294586 2.418069 -0.000001 -0.000000 -0.000000 -36.271767 0.979421 28.204867 55.551749 -5.251494 5.768329 -5.279369 1.975821 -18.736010 -0.000038 0.000005 -0.000006 -0.000000 -0.000000 0.000000 -9.767490 -7.983763 -11.980712 61.419950 -5.326068 -0.331749 -34.991291 -6.191032 15.528859 -0.000006 -0.000017 -0.000001 -0.000000 -0.000000 0.000000 
